HIERARCHY
ROOT Hips
{
    OFFSET 0.000000 0.000000 0.000000
    CHANNELS 6 Xposition Yposition Zposition Zrotation Xrotation Yrotation
    JOINT Spine
    {
        OFFSET -0.000000 14.517291 0.000000
        CHANNELS 3 Zrotation Xrotation Yrotation
        JOINT Spine1
        {
            OFFSET -0.000000 37.558300 0.000000
            CHANNELS 3 Zrotation Xrotation Yrotation
            JOINT Neck
            {
                OFFSET -0.000000 37.404057 3.400369
                CHANNELS 3 Zrotation Xrotation Yrotation
                JOINT Head
                {
                    OFFSET -0.000000 24.785618 -3.540803
                    CHANNELS 3 Zrotation Xrotation Yrotation
                    End Site
                    {
                        OFFSET -0.000000 35.408028 0.000000
                    }
                }
            }
            JOINT LeftShoulder
            {
                OFFSET 6.992933 33.973492 -0.192664
                CHANNELS 3 Zrotation Xrotation Yrotation
                JOINT LeftArm
                {
                    OFFSET 21.527611 0.000000 0.000000
                    CHANNELS 3 Zrotation Xrotation Yrotation
                    JOINT LeftForeArm
                    {
                        OFFSET 56.353916 0.000000 0.000000
                        CHANNELS 3 Zrotation Xrotation Yrotation
                        JOINT LeftHand
                        {
                            OFFSET 47.774071 0.000000 0.000000
                            CHANNELS 3 Zrotation Xrotation Yrotation
                            End Site
                            {
                                OFFSET 26.556021 0.000000 0.000000
                            }
                        }
                    }
                }
            }
            JOINT RightShoulder
            {
                OFFSET -7.065357 33.973492 -0.192664
                CHANNELS 3 Zrotation Xrotation Yrotation
                JOINT RightArm
                {
                    OFFSET -21.527611 0.000000 0.000000
                    CHANNELS 3 Zrotation Xrotation Yrotation
                    JOINT RightForeArm
                    {
                        OFFSET -56.353916 0.000000 0.000000
                        CHANNELS 3 Zrotation Xrotation Yrotation
                        JOINT RightHand
                        {
                            OFFSET -47.774071 0.000000 0.000000
                            CHANNELS 3 Zrotation Xrotation Yrotation
                            End Site
                            {
                                OFFSET -26.556021 0.000000 0.000000
                            }
                        }
                    }
                }
            }
        }
    }
    JOINT LeftUpLeg
    {
        OFFSET 17.704014 0.000000 0.000000
        CHANNELS 3 Zrotation Xrotation Yrotation
        JOINT LeftLeg
        {
            OFFSET -0.000000 -81.181816 0.000000
            CHANNELS 3 Zrotation Xrotation Yrotation
            JOINT LeftFoot
            {
                OFFSET -0.000000 -62.821102 0.000000
                CHANNELS 3 Zrotation Xrotation Yrotation
                JOINT LeftToeBase
                {
                    OFFSET -0.000000 -11.507608 26.556021
                    CHANNELS 3 Zrotation Xrotation Yrotation
                    End Site
                    {
                        OFFSET -0.000000 0.000000 7.081605
                    }
                }
            }
        }
    }
    JOINT RightUpLeg
    {
        OFFSET -17.704014 0.000000 0.000000
        CHANNELS 3 Zrotation Xrotation Yrotation
        JOINT RightLeg
        {
            OFFSET -0.000000 -81.181816 0.000000
            CHANNELS 3 Zrotation Xrotation Yrotation
            JOINT RightFoot
            {
                OFFSET -0.000000 -62.821102 0.000000
                CHANNELS 3 Zrotation Xrotation Yrotation
                JOINT RightToeBase
                {
                    OFFSET -0.000000 -11.507608 26.556021
                    CHANNELS 3 Zrotation Xrotation Yrotation
                    End Site
                    {
                        OFFSET -0.000000 0.000000 7.081605
                    }
                }
            }
        }
    }
}
MOTION
Frames:    6
Frame Time:    0.008333
7.224341    157.855743    -102.664162    -8.423475    -9.565882    25.843685    -3.153884    4.805588    -0.268034    -6.210849    1.838837    -0.033511    8.903291    -5.341986    -3.634856    11.163900    1.067111    -4.040706    4.812949    8.204282    -18.292143    -28.140278    25.211493    -54.518719    0.789475    -11.565036    -99.226173    12.313661    -11.767975    -10.490695    -6.931612    -0.608623    -1.442808    31.022882    -18.097040    60.821171    -29.608841    -23.043882    61.973480    -0.619836    -5.544272    36.462181    17.680979    -4.905175    -1.907967    -11.917882    38.615574    -20.330853    12.334255    -26.578989    43.421143    0.000000    0.000000    0.000000    -5.901411    -17.595512    -12.154735    9.785047    17.534561    -13.029418    8.108249    19.197527    -13.465353    0.000000    0.000000    0.000000    
7.369116    157.882278    -102.635368    -8.239813    -9.438337    25.801702    -3.083717    4.694042    -0.298970    -6.126902    1.849492    -0.043104    8.960890    -5.321109    -3.540846    11.038235    1.099414    -3.972293    4.841484    8.232406    -18.251612    -28.147364    25.228689    -54.531101    0.835420    -11.609129    -99.206963    12.315268    -11.761895    -10.511467    -6.881160    -0.591859    -1.404914    30.993021    -18.116436    60.759819    -29.559631    -23.068785    62.047054    -0.571909    -5.560859    36.469879    17.425552    -4.742371    -1.872984    -11.926948    38.311836    -20.326206    12.379551    -26.453426    43.422531    0.000000    0.000000    0.000000    -6.136332    -17.622957    -12.080395    9.786220    17.574776    -12.991283    8.143610    19.096270    -13.485032    0.000000    0.000000    0.000000    
7.509093    157.904633    -102.600334    -8.052887    -9.317614    25.754463    -3.016229    4.584450    -0.318680    -6.004915    1.877855    -0.048147    8.916895    -5.315441    -3.495621    10.975263    1.148479    -3.929075    4.790318    8.198713    -18.246687    -28.122341    25.326048    -54.470318    0.929958    -11.735211    -99.219612    12.258815    -11.764767    -10.427595    -6.880624    -0.562523    -1.406507    31.045732    -18.210978    60.754822    -29.397709    -22.967016    62.209003    -0.574946    -5.498629    36.398151    17.167009    -4.571234    -1.809559    -11.895791    38.020859    -20.365124    12.405839    -26.342278    43.409740    0.000000    0.000000    0.000000    -6.371478    -17.642979    -12.008704    9.794146    17.612658    -12.955724    8.151900    18.994715    -13.485034    0.000000    0.000000    0.000000    
7.647815    157.925980    -102.571259    -7.876374    -9.199933    25.719028    -2.913205    4.507081    -0.350942    -5.929730    1.862692    -0.058738    9.017804    -5.296843    -3.393102    10.750369    1.175287    -3.873111    4.782465    8.110506    -18.136581    -28.164568    25.360468    -54.456150    0.788270    -11.601345    -99.243088    12.231735    -11.795839    -10.472225    -6.870093    -0.528461    -1.427147    31.098835    -18.257244    60.780037    -29.322107    -22.890953    62.282192    -0.694845    -5.478754    36.404255    16.918139    -4.415397    -1.755696    -11.870370    37.738514    -20.387135    12.420988    -26.243916    43.400681    0.000000    0.000000    0.000000    -6.600477    -17.666904    -11.971601    9.797683    17.656776    -12.931810    8.165917    18.901356    -13.474157    0.000000    0.000000    0.000000    
7.788666    157.951279    -102.545357    -7.692323    -9.070191    25.664536    -2.811283    4.422883    -0.373794    -5.890447    1.850529    -0.065763    9.068871    -5.301202    -3.310762    10.656083    1.232570    -3.815450    4.821762    8.157850    -18.086767    -28.168575    25.325109    -54.492611    0.795817    -11.577531    -99.250229    12.350973    -11.764380    -10.381478    -6.815556    -0.545899    -1.442042    31.061609    -18.227850    60.740269    -29.240797    -22.901320    62.353081    -0.635615    -5.498369    36.396667    16.639202    -4.311805    -1.667023    -11.788749    37.461006    -20.438030    12.374767    -26.069683    43.372192    0.000000    0.000000    0.000000    -6.837828    -17.702631    -11.919136    9.807442    17.696035    -12.920301    8.150412    18.821598    -13.450257    0.000000    0.000000    0.000000    
7.940687    157.984131    -102.507744    -7.495408    -8.945576    25.598301    -2.746978    4.319510    -0.391404    -5.765609    1.875413    -0.070700    9.010186    -5.281704    -3.265381    10.619352    1.276678    -3.763921    4.771266    8.138792    -18.047827    -28.192732    25.317881    -54.431580    0.766947    -11.514520    -99.277748    12.372170    -11.741673    -10.433428    -6.838496    -0.524254    -1.452675    31.159691    -18.309216    60.781437    -29.091745    -22.788498    62.486153    -0.658042    -5.433870    36.392044    16.346416    -4.128448    -1.603907    -11.711188    37.161160    -20.446535    12.348075    -25.970854    43.323219    0.000000    0.000000    0.000000    -7.080076    -17.727045    -11.896239    9.803555    17.743780    -12.890604    8.127837    18.736729    -13.407514    0.000000    0.000000    0.000000    
